<svg xmlns="http://www.w3.org/2000/svg" width="1600" height="1120" viewBox="0 0 1600 1120" role="img" aria-labelledby="title desc">
  <title id="title">Lovv Agent V2 architecture structure</title>
  <desc id="desc">Architecture diagram derived from docs/reports/V2_ARCHITECTURE_DECISIONS.md</desc>
  <defs>
    <marker id="arrow" viewBox="0 0 10 10" refX="8.5" refY="5" markerWidth="8" markerHeight="8" orient="auto-start-reverse">
      <path d="M 0 0 L 10 5 L 0 10 z" fill="#334155"/>
    </marker>
    <marker id="arrow-blue" viewBox="0 0 10 10" refX="8.5" refY="5" markerWidth="8" markerHeight="8" orient="auto-start-reverse">
      <path d="M 0 0 L 10 5 L 0 10 z" fill="#2563eb"/>
    </marker>
    <style>
      .bg { fill: #f8fafc; }
      .title { font: 700 34px "Malgun Gothic", "Segoe UI", Arial, sans-serif; fill: #0f172a; }
      .subtitle { font: 400 17px "Malgun Gothic", "Segoe UI", Arial, sans-serif; fill: #475569; }
      .section-title { font: 700 20px "Malgun Gothic", "Segoe UI", Arial, sans-serif; fill: #0f172a; }
      .label { font: 700 17px "Malgun Gothic", "Segoe UI", Arial, sans-serif; fill: #0f172a; }
      .body { font: 400 15px "Malgun Gothic", "Segoe UI", Arial, sans-serif; fill: #334155; }
      .small { font: 400 13px "Malgun Gothic", "Segoe UI", Arial, sans-serif; fill: #475569; }
      .tiny { font: 400 12px "Malgun Gothic", "Segoe UI", Arial, sans-serif; fill: #64748b; }
      .container-blue { fill: #eff6ff; stroke: #2563eb; stroke-width: 2; rx: 12; }
      .container-orange { fill: #fff7ed; stroke: #f97316; stroke-width: 2; rx: 12; }
      .container-purple { fill: #faf5ff; stroke: #9333ea; stroke-width: 2; rx: 12; }
      .container-green { fill: #f0fdf4; stroke: #16a34a; stroke-width: 2; rx: 12; }
      .container-slate { fill: #f1f5f9; stroke: #64748b; stroke-width: 2; rx: 12; }
      .box-blue { fill: #dbeafe; stroke: #2563eb; stroke-width: 1.8; rx: 10; }
      .box-orange { fill: #fed7aa; stroke: #f97316; stroke-width: 1.8; rx: 10; }
      .box-yellow { fill: #fef3c7; stroke: #d97706; stroke-width: 1.8; rx: 10; }
      .box-green { fill: #dcfce7; stroke: #16a34a; stroke-width: 1.8; rx: 10; }
      .box-purple { fill: #ede9fe; stroke: #7c3aed; stroke-width: 1.8; rx: 10; }
      .box-slate { fill: #ffffff; stroke: #64748b; stroke-width: 1.5; rx: 10; }
      .box-red { fill: #fee2e2; stroke: #dc2626; stroke-width: 1.8; rx: 10; }
      .edge { fill: none; stroke: #334155; stroke-width: 2.2; marker-end: url(#arrow); }
      .edge-blue { fill: none; stroke: #2563eb; stroke-width: 2.2; marker-end: url(#arrow-blue); }
      .edge-dashed { fill: none; stroke: #64748b; stroke-width: 2; stroke-dasharray: 8 6; marker-end: url(#arrow); }
      .note-line { stroke: #cbd5e1; stroke-width: 1; }
    </style>
  </defs>

  <rect class="bg" x="0" y="0" width="1600" height="1120"/>
  <text class="title" x="56" y="58">Lovv Agent V2 Architecture Structure</text>
  <text class="subtitle" x="58" y="88">Source: docs/reports/V2_ARCHITECTURE_DECISIONS.md · Working Draft 기준일 2026-06-25</text>

  <g transform="translate(1268 34)">
    <rect class="box-slate" x="0" y="0" width="270" height="76"/>
    <circle cx="22" cy="24" r="7" fill="#2563eb"/>
    <text class="tiny" x="40" y="29">Main graph / runtime flow</text>
    <circle cx="22" cy="49" r="7" fill="#f97316"/>
    <text class="tiny" x="40" y="54">city_select subgraph</text>
  </g>

  <rect class="box-slate" x="48" y="238" width="172" height="92"/>
  <text class="label" x="84" y="273">User / Front</text>
  <text class="body" x="74" y="299">초회 요청</text>
  <text class="small" x="71" y="319">자연어 수정 입력</text>

  <rect class="container-blue" x="260" y="130" width="1058" height="430"/>
  <text class="section-title" x="285" y="164">V2 Main Graph - 초회 생성 경로</text>
  <text class="small" x="286" y="187">HITL 후보 번호 선택과 빌더 루프는 폐기하고, 생성 후 자연어 수정 루프로 전환</text>

  <rect class="box-blue" x="300" y="235" width="150" height="76"/>
  <text class="label" x="329" y="266">Intent</text>
  <text class="small" x="325" y="289">요청 해석</text>

  <rect class="box-blue" x="492" y="235" width="152" height="76"/>
  <text class="label" x="525" y="266">Supervisor</text>
  <text class="small" x="520" y="289">초회 / resume 분기</text>

  <rect class="container-orange" x="690" y="176" width="332" height="300"/>
  <text class="section-title" x="720" y="210">city_select subgraph</text>
  <text class="small" x="727" y="232">A2A-ready 경계 · 부분 재실행 진입점</text>

  <rect class="box-orange" x="722" y="252" width="268" height="52"/>
  <text class="label" x="760" y="275">retrieval_agent</text>
  <text class="tiny" x="749" y="294">S3 Vector 검색 + merge + prune</text>

  <rect class="box-orange" x="722" y="330" width="268" height="52"/>
  <text class="label" x="765" y="353">scoring_agent</text>
  <text class="tiny" x="748" y="372">theme_weights + scoring.py 개선</text>

  <rect class="box-orange" x="722" y="408" width="268" height="52"/>
  <text class="label" x="761" y="431">selection_agent</text>
  <text class="tiny" x="746" y="450">도시 확정 + quota + reason claims</text>

  <rect class="box-yellow" x="1058" y="178" width="204" height="72"/>
  <text class="label" x="1092" y="208">Festival Verifier</text>
  <text class="small" x="1110" y="231">optional fan-out</text>

  <rect class="box-green" x="1058" y="304" width="204" height="78"/>
  <text class="label" x="1120" y="335">Planner</text>
  <text class="small" x="1084" y="358">초회 생성 + 수정 모드</text>

  <rect class="box-green" x="1058" y="430" width="204" height="78"/>
  <text class="label" x="1086" y="461">Response Packager</text>
  <text class="small" x="1094" y="484">일정 반환 + interrupt</text>

  <rect class="box-purple" x="690" y="92" width="332" height="58"/>
  <text class="label" x="746" y="116">Profile Agent read</text>
  <text class="small" x="736" y="137">theme_weights를 CitySelectState로 주입</text>

  <rect class="container-purple" x="1350" y="178" width="200" height="270"/>
  <text class="section-title" x="1382" y="212">Memory</text>
  <rect class="box-purple" x="1374" y="232" width="152" height="76"/>
  <text class="label" x="1392" y="263">Checkpoint</text>
  <text class="small" x="1400" y="286">UnifiedAgentState</text>
  <rect class="box-purple" x="1374" y="328" width="152" height="76"/>
  <text class="label" x="1404" y="359">Resume</text>
  <text class="small" x="1402" y="382">thread_id + TTL</text>

  <path class="edge-blue" d="M 220 284 L 300 273"/>
  <path class="edge-blue" d="M 450 273 L 492 273"/>
  <path class="edge-blue" d="M 644 273 L 690 273"/>
  <path class="edge" d="M 856 304 L 856 330"/>
  <path class="edge" d="M 856 382 L 856 408"/>
  <path class="edge-blue" d="M 1022 343 L 1058 343"/>
  <path class="edge-dashed" d="M 1022 214 L 1058 214"/>
  <path class="edge-dashed" d="M 1160 250 L 1160 304"/>
  <path class="edge-blue" d="M 1160 382 L 1160 430"/>
  <path class="edge-blue" d="M 1058 469 C 760 548 420 448 220 321"/>
  <path class="edge" d="M 856 150 L 856 176"/>
  <path class="edge" d="M 1262 469 C 1326 469 1348 418 1374 382"/>
  <path class="edge-dashed" d="M 1374 366 C 1290 366 1330 273 1262 273"/>

  <text class="tiny" x="225" y="264">request</text>
  <text class="tiny" x="1178" y="416">interrupt</text>
  <text class="tiny" x="1280" y="448">checkpoint 저장</text>
  <text class="tiny" x="1284" y="348">resume 분기</text>

  <rect class="container-green" x="48" y="604" width="580" height="342"/>
  <text class="section-title" x="78" y="640">핵심 데이터 계약</text>

  <rect class="box-green" x="78" y="670" width="250" height="98"/>
  <text class="label" x="112" y="700">CitySelectionResult</text>
  <text class="small" x="98" y="724">selected_city, rankings, mode</text>
  <text class="small" x="98" y="746">도시 변경 요청 때만 재생성</text>

  <rect class="box-green" x="350" y="670" width="242" height="98"/>
  <text class="label" x="420" y="700">PlacePool</text>
  <text class="small" x="373" y="724">recommended / reserve / audit</text>
  <text class="small" x="373" y="746">수정 루프에서 갱신</text>

  <rect class="box-green" x="78" y="802" width="514" height="108"/>
  <text class="label" x="250" y="832">PlannerInput</text>
  <text class="small" x="104" y="858">status, selected_city, places, festival_candidates,</text>
  <text class="small" x="104" y="880">external_link_themes, candidate_reason_claims</text>
  <text class="tiny" x="104" y="902">Planner가 실제로 필요한 최소 입력만 전달</text>

  <path class="edge" d="M 328 719 L 350 719"/>
  <path class="edge" d="M 203 768 C 203 788 225 802 260 802"/>
  <path class="edge" d="M 471 768 C 471 788 445 802 408 802"/>

  <rect class="container-purple" x="672" y="604" width="878" height="342"/>
  <text class="section-title" x="702" y="640">자연어 수정 루프 - resume 기반</text>
  <text class="small" x="704" y="663">수정 횟수 제한 없음 · 입력 중단 후 TTL 기반 종료 · 필요 시 city_id 고정 DynamoDB 재인출</text>

  <rect class="box-slate" x="704" y="704" width="146" height="68"/>
  <text class="label" x="742" y="733">사용자</text>
  <text class="tiny" x="726" y="754">“2일차 바꿔줘”</text>

  <rect class="box-purple" x="888" y="704" width="146" height="68"/>
  <text class="label" x="914" y="733">resume</text>
  <text class="tiny" x="919" y="754">thread_id</text>

  <rect class="box-purple" x="1072" y="704" width="158" height="68"/>
  <text class="label" x="1104" y="733">수정 Intent</text>
  <text class="tiny" x="1098" y="754">슬롯 / 범위 해석</text>

  <rect class="box-yellow" x="1268" y="704" width="204" height="68"/>
  <text class="label" x="1304" y="733">Pool 확인</text>
  <text class="tiny" x="1291" y="754">reserve 우선, 소진 시 재인출</text>

  <rect class="box-red" x="1000" y="824" width="236" height="72"/>
  <text class="label" x="1050" y="854">DynamoDB lookup</text>
  <text class="tiny" x="1030" y="876">city_id 고정 + theme_tags 필터</text>

  <rect class="box-green" x="1268" y="824" width="204" height="72"/>
  <text class="label" x="1310" y="854">Planner 재실행</text>
  <text class="tiny" x="1296" y="876">부분 / 전체 재배치</text>

  <path class="edge" d="M 850 738 L 888 738"/>
  <path class="edge" d="M 1034 738 L 1072 738"/>
  <path class="edge" d="M 1230 738 L 1268 738"/>
  <path class="edge" d="M 1370 772 L 1370 824"/>
  <path class="edge-dashed" d="M 1268 738 C 1164 738 1118 780 1118 824"/>
  <path class="edge" d="M 1236 860 L 1268 860"/>
  <path class="edge-blue" d="M 1472 860 C 1518 860 1518 694 1472 694 C 1330 694 1210 662 1040 662 C 940 662 876 676 777 704"/>
  <text class="tiny" x="1316" y="818">수정된 일정 반환 + interrupt</text>

  <rect class="container-slate" x="48" y="982" width="1502" height="92"/>
  <text class="section-title" x="78" y="1018">개발 및 배포 경계</text>
  <text class="body" x="80" y="1048">src/lovv_agent/agents/city_selection, planner, intent, shared로 모듈 분리 개발 → pytest / integration → build → deploy</text>
  <text class="label" x="1132" y="1048">단일 LovvAgentV1 AgentCore Runtime</text>
  <text class="tiny" x="1162" y="1068">별도 AgentCore Runtime 분리 없음 · us-east-1 · V1 Observability/CI/CD 유지</text>
</svg>
